<?xml version="1.0" standalone="no"?>
<!DOCTYPE svg PUBLIC "-//W3C//DTD SVG 20010904//EN"
 "http://www.w3.org/TR/2001/REC-SVG-20010904/DTD/svg10.dtd">
<svg version="1.0" xmlns="http://www.w3.org/2000/svg"
 width="726.000000pt" height="726.000000pt" viewBox="0 0 726.000000 726.000000"
 preserveAspectRatio="xMidYMid meet">
<metadata>
Created by potrace 1.14, written by Peter Selinger 2001-2017
</metadata>
<g transform="translate(0.000000,726.000000) scale(0.100000,-0.100000)"
fill="#000000" stroke="none">
<path d="M3419 7256 c-2 -2 -47 -7 -99 -10 -90 -6 -123 -10 -195 -21 -16 -3
-48 -7 -70 -10 -164 -24 -473 -103 -645 -165 -242 -89 -489 -208 -697 -337
-122 -76 -343 -237 -419 -304 -21 -19 -65 -58 -98 -88 -62 -55 -237 -231 -291
-292 -24 -28 -113 -139 -212 -264 -35 -45 -183 -275 -227 -355 -116 -207 -221
-446 -293 -670 -41 -128 -105 -383 -119 -478 -3 -20 -7 -48 -10 -62 -2 -14 -6
-45 -9 -70 -3 -25 -8 -61 -10 -80 -15 -112 -20 -219 -20 -415 0 -266 12 -424
46 -610 6 -33 13 -72 14 -87 8 -59 77 -322 115 -437 146 -441 363 -833 665
-1200 187 -226 502 -512 751 -679 386 -259 848 -454 1299 -547 78 -16 101 -20
168 -30 17 -2 48 -7 67 -10 228 -37 658 -41 930 -10 460 53 962 217 1353 444
49 28 93 51 98 51 5 0 9 5 9 10 0 6 5 10 11 10 16 0 333 220 359 249 3 3 30
26 60 51 89 72 138 118 261 242 386 387 683 867 857 1383 39 117 89 290 98
344 3 14 9 42 14 61 5 19 11 51 14 70 3 19 7 44 10 55 2 11 9 56 16 100 6 44
13 91 15 104 26 157 26 693 1 851 -4 23 -9 59 -21 150 -3 19 -7 46 -10 60 -2
14 -7 39 -10 55 -16 80 -47 223 -55 245 -4 14 -18 59 -30 100 -131 449 -351
869 -653 1245 -163 204 -407 444 -593 585 -32 25 -65 51 -73 58 -28 26 -298
200 -397 255 -360 201 -809 356 -1189 411 -23 4 -52 8 -65 11 -13 3 -56 7 -95
11 -38 3 -79 8 -90 11 -23 5 -531 13 -536 9z"/>
</g>
</svg>
